<svg width="32" height="32" viewBox="0 0 32 32" fill="none" xmlns="http://www.w3.org/2000/svg">
<path d="M18.3333 11.9998C18.3333 11.4475 17.8856 10.9998 17.3333 10.9998C16.781 10.9998 16.3333 11.4475 16.3333 11.9998V13.6665H14.6667C14.1144 13.6665 13.6667 14.1142 13.6667 14.6665C13.6667 15.2187 14.1144 15.6665 14.6667 15.6665H16.3333V17.3331C16.3333 17.8854 16.781 18.3331 17.3333 18.3331C17.8856 18.3331 18.3333 17.8854 18.3333 17.3331V15.6665H20C20.5523 15.6665 21 15.2187 21 14.6665C21 14.1142 20.5523 13.6665 20 13.6665H18.3333V11.9998Z" fill="#2C46AA"/>
<path fill-rule="evenodd" clip-rule="evenodd" d="M1.72326 3.66811C1.90644 3.14709 2.47731 2.87321 2.99833 3.05639L3.4002 3.19768C4.22224 3.48665 4.92041 3.73209 5.46986 4.00169C6.05737 4.28996 6.56117 4.64507 6.94008 5.19956C7.31605 5.74975 7.47127 6.35337 7.54291 7.01521C7.54804 7.06259 7.55278 7.11078 7.55717 7.15978L22.8267 7.15978C23.9182 7.15977 25.031 7.15975 25.9471 7.26215C26.4135 7.31428 26.8755 7.39735 27.2842 7.54094C27.6849 7.68172 28.1253 7.91226 28.4386 8.31949C28.9477 8.98134 29.0367 9.75203 28.9885 10.5336C28.9425 11.2778 28.7578 12.203 28.5383 13.3028L28.5243 13.3725L28.5231 13.3787L27.8445 16.671C27.6449 17.6395 27.477 18.4545 27.2603 19.0973C27.0305 19.7793 26.7119 20.3788 26.1432 20.8422C25.5745 21.3056 24.9231 21.4967 24.2088 21.5841C23.5355 21.6665 22.7035 21.6665 21.7146 21.6665L14.5069 21.6665C12.7126 21.6665 11.2594 21.6665 10.1151 21.5042C8.92015 21.3348 7.9164 20.9712 7.12459 20.136C6.39628 19.3679 6.00677 18.5523 5.81167 17.4133C5.62893 16.3463 5.61076 14.9498 5.61076 13.0131V9.38426C5.61076 8.39767 5.6094 7.73738 5.55453 7.23044C5.50209 6.74597 5.40915 6.50407 5.2888 6.32796C5.17139 6.15614 4.99316 5.99557 4.58886 5.79719C4.15841 5.58598 3.5734 5.37858 2.68326 5.06562L2.33498 4.94318C1.81396 4.76 1.54008 4.18913 1.72326 3.66811ZM7.61075 9.15978L7.61076 13.0131C7.61076 14.9985 7.63475 16.2102 7.78297 17.0756C7.91883 17.8689 8.14908 18.3097 8.57596 18.76C8.93935 19.1433 9.44285 19.3889 10.3959 19.5241C11.3835 19.6641 12.6942 19.6665 14.5833 19.6665H21.6538C22.7195 19.6665 23.4283 19.6647 23.9658 19.5989C24.4761 19.5365 24.7128 19.4278 24.8798 19.2918C25.0467 19.1557 25.2009 18.9458 25.3651 18.4587C25.538 17.9455 25.6828 17.2517 25.8979 16.2079L26.563 12.981L26.5636 12.9781C26.8004 11.7915 26.9558 11.0018 26.9923 10.4104C27.0269 9.84847 26.9388 9.6522 26.857 9.54366C26.8487 9.53663 26.7906 9.48736 26.6212 9.42785C26.4139 9.35503 26.119 9.29383 25.725 9.24977C24.9319 9.16112 23.9269 9.15978 22.7851 9.15978H7.61075Z" fill="#2C46AA"/>
<path fill-rule="evenodd" clip-rule="evenodd" d="M6.99999 25.9998C6.99999 27.6566 8.34313 28.9998 9.99999 28.9998C11.6568 28.9998 13 27.6566 13 25.9998C13 24.3429 11.6568 22.9998 9.99999 22.9998C8.34313 22.9998 6.99999 24.3429 6.99999 25.9998ZM9.99999 26.9998C9.4477 26.9998 8.99999 26.5521 8.99999 25.9998C8.99999 25.4475 9.4477 24.9998 9.99999 24.9998C10.5523 24.9998 11 25.4475 11 25.9998C11 26.5521 10.5523 26.9998 9.99999 26.9998Z" fill="#2C46AA"/>
<path fill-rule="evenodd" clip-rule="evenodd" d="M19 25.9999C19 27.6567 20.3431 28.9999 22 28.9999C23.6568 28.9999 25 27.6567 25 25.9999C25 24.343 23.6568 22.9999 22 22.9999C20.3431 22.9999 19 24.343 19 25.9999ZM22 26.9999C21.4477 26.9999 21 26.5522 21 25.9999C21 25.4476 21.4477 24.9999 22 24.9999C22.5523 24.9999 23 25.4476 23 25.9999C23 26.5522 22.5523 26.9999 22 26.9999Z" fill="#2C46AA"/>
</svg>
